<?xml version="1.0" encoding="UTF-8"?>
<mxfile host="app.diagrams.net" modified="2023-12-21T08:48:44.674Z" agent="Mozilla/5.0 (Windows NT 10.0; Win64; x64) AppleWebKit/537.36 (KHTML, like Gecko) Chrome/120.0.0.0 Safari/537.36 Edg/120.0.0.0" etag="H6uOe5AoJ6xih9tKvwql" version="22.1.11" type="google">
  <diagram name="第 1 页" id="bqjFycA_bWMykfGMcf2n">
    <mxGraphModel dx="1589" dy="676" grid="1" gridSize="10" guides="1" tooltips="1" connect="1" arrows="1" fold="1" page="1" pageScale="1" pageWidth="827" pageHeight="1169" math="0" shadow="0">
      <root>
        <mxCell id="0" />
        <mxCell id="1" parent="0" />
        <mxCell id="n6OKS5SeyEPI8-EwVOu3-65" value="" style="endArrow=none;dashed=1;html=1;dashPattern=1 3;strokeWidth=2;rounded=0;entryX=1;entryY=0.75;entryDx=0;entryDy=0;" parent="1" target="n6OKS5SeyEPI8-EwVOu3-20" edge="1">
          <mxGeometry width="50" height="50" relative="1" as="geometry">
            <mxPoint x="290" y="410" as="sourcePoint" />
            <mxPoint x="400" y="260" as="targetPoint" />
          </mxGeometry>
        </mxCell>
        <mxCell id="n6OKS5SeyEPI8-EwVOu3-11" value="" style="rounded=0;whiteSpace=wrap;html=1;rotation=90;fillColor=#00FF00;" parent="1" vertex="1">
          <mxGeometry x="90" y="230" width="60" height="20" as="geometry" />
        </mxCell>
        <mxCell id="n6OKS5SeyEPI8-EwVOu3-10" value="" style="endArrow=none;dashed=1;html=1;rounded=0;" parent="1" edge="1">
          <mxGeometry width="50" height="50" relative="1" as="geometry">
            <mxPoint x="120" y="420" as="sourcePoint" />
            <mxPoint x="120" y="190" as="targetPoint" />
          </mxGeometry>
        </mxCell>
        <mxCell id="n6OKS5SeyEPI8-EwVOu3-12" value="" style="rounded=0;whiteSpace=wrap;html=1;fillColor=#00FF00;rotation=90;" parent="1" vertex="1">
          <mxGeometry x="105" y="420" width="30" height="20" as="geometry" />
        </mxCell>
        <mxCell id="n6OKS5SeyEPI8-EwVOu3-17" value="" style="group" parent="1" connectable="0" vertex="1">
          <mxGeometry x="90" y="130" width="50" height="40" as="geometry" />
        </mxCell>
        <mxCell id="n6OKS5SeyEPI8-EwVOu3-15" value="" style="group" parent="n6OKS5SeyEPI8-EwVOu3-17" connectable="0" vertex="1">
          <mxGeometry width="50" height="40" as="geometry" />
        </mxCell>
        <mxCell id="n6OKS5SeyEPI8-EwVOu3-1" value="" style="ellipse;whiteSpace=wrap;html=1;container=0;fillColor=#00FF00;" parent="n6OKS5SeyEPI8-EwVOu3-15" vertex="1">
          <mxGeometry x="10.714285714285722" width="28.571428571428577" height="16" as="geometry" />
        </mxCell>
        <mxCell id="n6OKS5SeyEPI8-EwVOu3-2" value="" style="endArrow=none;html=1;rounded=0;" parent="n6OKS5SeyEPI8-EwVOu3-15" edge="1">
          <mxGeometry width="50" height="50" relative="1" as="geometry">
            <mxPoint y="16" as="sourcePoint" />
            <mxPoint x="50" y="16" as="targetPoint" />
          </mxGeometry>
        </mxCell>
        <mxCell id="n6OKS5SeyEPI8-EwVOu3-3" value="" style="endArrow=none;html=1;rounded=0;" parent="n6OKS5SeyEPI8-EwVOu3-15" edge="1">
          <mxGeometry width="50" height="50" relative="1" as="geometry">
            <mxPoint x="25" y="40" as="sourcePoint" />
            <mxPoint x="25" y="16" as="targetPoint" />
            <Array as="points" />
          </mxGeometry>
        </mxCell>
        <mxCell id="n6OKS5SeyEPI8-EwVOu3-16" value="" style="endArrow=none;html=1;rounded=0;" parent="n6OKS5SeyEPI8-EwVOu3-17" edge="1">
          <mxGeometry width="50" height="50" relative="1" as="geometry">
            <mxPoint x="10" y="50" as="sourcePoint" />
            <mxPoint x="40" y="50" as="targetPoint" />
            <Array as="points">
              <mxPoint x="25" y="40" />
            </Array>
          </mxGeometry>
        </mxCell>
        <mxCell id="n6OKS5SeyEPI8-EwVOu3-19" value=": SystemAssitant" style="text;html=1;strokeColor=none;fillColor=#00FF00;align=center;verticalAlign=middle;whiteSpace=wrap;rounded=0;" parent="1" vertex="1">
          <mxGeometry x="240" y="120" width="100" height="40" as="geometry" />
        </mxCell>
        <mxCell id="n6OKS5SeyEPI8-EwVOu3-21" value="" style="endArrow=classic;html=1;rounded=0;exitX=0.5;exitY=0;exitDx=0;exitDy=0;" parent="1" source="n6OKS5SeyEPI8-EwVOu3-11" edge="1">
          <mxGeometry width="50" height="50" relative="1" as="geometry">
            <mxPoint x="220" y="265" as="sourcePoint" />
            <mxPoint x="280" y="230" as="targetPoint" />
          </mxGeometry>
        </mxCell>
        <mxCell id="n6OKS5SeyEPI8-EwVOu3-20" value="" style="rounded=0;whiteSpace=wrap;html=1;rotation=90;fillColor=#00FF00;" parent="1" vertex="1">
          <mxGeometry x="260" y="220" width="70" height="20" as="geometry" />
        </mxCell>
        <mxCell id="n6OKS5SeyEPI8-EwVOu3-29" value="" style="rounded=0;whiteSpace=wrap;html=1;rotation=90;fillColor=#00FF00;" parent="1" vertex="1">
          <mxGeometry x="250" y="330" width="70" height="20" as="geometry" />
        </mxCell>
        <mxCell id="n6OKS5SeyEPI8-EwVOu3-35" value="" style="endArrow=none;dashed=1;html=1;rounded=0;entryX=0.5;entryY=1;entryDx=0;entryDy=0;" parent="1" target="n6OKS5SeyEPI8-EwVOu3-34" edge="1">
          <mxGeometry width="50" height="50" relative="1" as="geometry">
            <mxPoint x="290" y="430" as="sourcePoint" />
            <mxPoint x="290" y="160" as="targetPoint" />
          </mxGeometry>
        </mxCell>
        <mxCell id="n6OKS5SeyEPI8-EwVOu3-34" value="" style="rounded=0;whiteSpace=wrap;html=1;fillColor=#00FF00;rotation=90;" parent="1" vertex="1">
          <mxGeometry x="275" y="420" width="30" height="20" as="geometry" />
        </mxCell>
        <mxCell id="n6OKS5SeyEPI8-EwVOu3-36" value=": CarCatalog" style="text;html=1;strokeColor=none;fillColor=#00FF00;align=center;verticalAlign=middle;whiteSpace=wrap;rounded=0;" parent="1" vertex="1">
          <mxGeometry x="400" y="120" width="74" height="30" as="geometry" />
        </mxCell>
        <mxCell id="n6OKS5SeyEPI8-EwVOu3-37" value="" style="rounded=0;whiteSpace=wrap;html=1;rotation=90;fillColor=#00FF00;" parent="1" vertex="1">
          <mxGeometry x="402" y="220" width="70" height="20" as="geometry" />
        </mxCell>
        <mxCell id="n6OKS5SeyEPI8-EwVOu3-38" value="" style="endArrow=none;dashed=1;html=1;rounded=0;entryX=0.5;entryY=1;entryDx=0;entryDy=0;exitX=0;exitY=0.5;exitDx=0;exitDy=0;" parent="1" source="n6OKS5SeyEPI8-EwVOu3-37" target="n6OKS5SeyEPI8-EwVOu3-36" edge="1">
          <mxGeometry width="50" height="50" relative="1" as="geometry">
            <mxPoint x="470" y="210" as="sourcePoint" />
            <mxPoint x="450" y="160" as="targetPoint" />
          </mxGeometry>
        </mxCell>
        <mxCell id="n6OKS5SeyEPI8-EwVOu3-39" value="" style="endArrow=classic;html=1;rounded=0;entryX=0.357;entryY=1.15;entryDx=0;entryDy=0;entryPerimeter=0;" parent="1" target="n6OKS5SeyEPI8-EwVOu3-37" edge="1">
          <mxGeometry width="50" height="50" relative="1" as="geometry">
            <mxPoint x="310" y="220" as="sourcePoint" />
            <mxPoint x="360" y="170" as="targetPoint" />
          </mxGeometry>
        </mxCell>
        <mxCell id="n6OKS5SeyEPI8-EwVOu3-45" value="" style="endArrow=block;dashed=1;endFill=0;endSize=12;html=1;rounded=0;entryX=0.75;entryY=0;entryDx=0;entryDy=0;exitX=0.75;exitY=1;exitDx=0;exitDy=0;fillColor=#1A1A1A;" parent="1" source="n6OKS5SeyEPI8-EwVOu3-37" target="n6OKS5SeyEPI8-EwVOu3-20" edge="1">
          <mxGeometry width="160" relative="1" as="geometry">
            <mxPoint x="360" y="280" as="sourcePoint" />
            <mxPoint x="520" y="280" as="targetPoint" />
          </mxGeometry>
        </mxCell>
        <mxCell id="n6OKS5SeyEPI8-EwVOu3-51" value="" style="rounded=0;whiteSpace=wrap;html=1;fillColor=#00FF00;rotation=90;" parent="1" vertex="1">
          <mxGeometry x="680" y="420" width="30" height="20" as="geometry" />
        </mxCell>
        <mxCell id="n6OKS5SeyEPI8-EwVOu3-55" value="管理者" style="text;html=1;strokeColor=none;fillColor=none;align=center;verticalAlign=middle;whiteSpace=wrap;rounded=0;" parent="1" vertex="1">
          <mxGeometry x="85" y="180" width="60" height="30" as="geometry" />
        </mxCell>
        <mxCell id="n6OKS5SeyEPI8-EwVOu3-56" value="findCar()" style="text;html=1;strokeColor=none;fillColor=none;align=center;verticalAlign=middle;whiteSpace=wrap;rounded=0;" parent="1" vertex="1">
          <mxGeometry x="170" y="200" width="60" height="30" as="geometry" />
        </mxCell>
        <mxCell id="n6OKS5SeyEPI8-EwVOu3-58" value="findCar()" style="text;html=1;strokeColor=none;fillColor=none;align=center;verticalAlign=middle;whiteSpace=wrap;rounded=0;" parent="1" vertex="1">
          <mxGeometry x="340" y="180" width="60" height="30" as="geometry" />
        </mxCell>
        <mxCell id="n6OKS5SeyEPI8-EwVOu3-59" value="[cars found]" style="text;html=1;strokeColor=none;fillColor=none;align=center;verticalAlign=middle;whiteSpace=wrap;rounded=0;" parent="1" vertex="1">
          <mxGeometry x="320" y="280" width="80" height="30" as="geometry" />
        </mxCell>
        <mxCell id="n6OKS5SeyEPI8-EwVOu3-72" value="" style="endArrow=block;dashed=1;endFill=0;endSize=12;html=1;rounded=0;" parent="1" edge="1">
          <mxGeometry width="160" relative="1" as="geometry">
            <mxPoint x="300" y="430" as="sourcePoint" />
            <mxPoint x="680" y="430" as="targetPoint" />
          </mxGeometry>
        </mxCell>
        <mxCell id="1N8MtR2cNnioxz-1QfbK-1" value="" style="endArrow=block;dashed=1;endFill=0;endSize=12;html=1;rounded=0;" edge="1" parent="1">
          <mxGeometry width="160" relative="1" as="geometry">
            <mxPoint x="130" y="429" as="sourcePoint" />
            <mxPoint x="290" y="429" as="targetPoint" />
          </mxGeometry>
        </mxCell>
        <mxCell id="n6OKS5SeyEPI8-EwVOu3-46" value="select : Car&lt;br&gt;" style="text;html=1;strokeColor=none;fillColor=#00FF00;align=center;verticalAlign=middle;whiteSpace=wrap;rounded=0;" parent="1" vertex="1">
          <mxGeometry x="655" y="120" width="80" height="30" as="geometry" />
        </mxCell>
        <mxCell id="n6OKS5SeyEPI8-EwVOu3-53" value="" style="endArrow=none;dashed=1;html=1;dashPattern=1 3;strokeWidth=2;rounded=0;entryX=0.5;entryY=1;entryDx=0;entryDy=0;exitX=0;exitY=0.5;exitDx=0;exitDy=0;" parent="1" edge="1" source="n6OKS5SeyEPI8-EwVOu3-51">
          <mxGeometry width="50" height="50" relative="1" as="geometry">
            <mxPoint x="695" y="395" as="sourcePoint" />
            <mxPoint x="695" y="135" as="targetPoint" />
          </mxGeometry>
        </mxCell>
        <mxCell id="1N8MtR2cNnioxz-1QfbK-6" value="&amp;nbsp;: Car" style="text;html=1;strokeColor=none;fillColor=#00FF00;align=center;verticalAlign=middle;whiteSpace=wrap;rounded=0;" vertex="1" parent="1">
          <mxGeometry x="530" y="120" width="80" height="30" as="geometry" />
        </mxCell>
        <mxCell id="1N8MtR2cNnioxz-1QfbK-7" value="" style="rounded=0;whiteSpace=wrap;html=1;rotation=90;fillColor=#00FF00;" vertex="1" parent="1">
          <mxGeometry x="530" y="320" width="70" height="20" as="geometry" />
        </mxCell>
        <mxCell id="1N8MtR2cNnioxz-1QfbK-8" value="" style="endArrow=classic;html=1;rounded=0;entryX=0.614;entryY=0.95;entryDx=0;entryDy=0;entryPerimeter=0;" edge="1" parent="1" target="1N8MtR2cNnioxz-1QfbK-7">
          <mxGeometry width="50" height="50" relative="1" as="geometry">
            <mxPoint x="300" y="340" as="sourcePoint" />
            <mxPoint x="350" y="310" as="targetPoint" />
          </mxGeometry>
        </mxCell>
        <mxCell id="1N8MtR2cNnioxz-1QfbK-9" value="" style="endArrow=none;dashed=1;html=1;rounded=0;entryX=0.425;entryY=1.1;entryDx=0;entryDy=0;entryPerimeter=0;exitX=0;exitY=0.5;exitDx=0;exitDy=0;" edge="1" parent="1" source="1N8MtR2cNnioxz-1QfbK-7" target="1N8MtR2cNnioxz-1QfbK-6">
          <mxGeometry width="50" height="50" relative="1" as="geometry">
            <mxPoint x="540" y="230" as="sourcePoint" />
            <mxPoint x="590" y="180" as="targetPoint" />
          </mxGeometry>
        </mxCell>
      </root>
    </mxGraphModel>
  </diagram>
</mxfile>
